<svg xmlns="http://www.w3.org/2000/svg" version="1.1" width="860" height="850" viewBox="206 202 860 850">

<path d="M0 0 C3.23386286 1.61693143 4.89609296 2.62949121 7.390625 5.01171875 C8.01340332 5.60098145 8.63618164 6.19024414 9.27783203 6.79736328 C9.92864746 7.4211084 10.57946289 8.04485352 11.25 8.6875 C12.60592129 9.97095019 13.96268222 11.25351396 15.3203125 12.53515625 C15.96387695 13.14375488 16.60744141 13.75235352 17.27050781 14.37939453 C19.75940704 16.7115957 22.32892255 18.94016481 24.9140625 21.1640625 C28.41285473 24.24352382 31.81061434 27.43285367 35.22753906 30.60253906 C38.0740092 33.23803747 40.93381403 35.84480945 43.875 38.375 C48.43680614 42.32086607 52.81271936 46.46523891 57.21240234 50.58959961 C61.28136247 54.40253869 65.37654652 58.18362622 69.5 61.9375 C73.22319968 65.3371596 76.83724213 68.80028063 80.3671875 72.3984375 C82.14130008 74.13859577 83.98986551 75.75600214 85.875 77.375 C89.62233703 80.60147165 93.08901216 84.04559715 96.53125 87.59375 C98.56500307 89.57601565 100.63144304 91.4295608 102.78125 93.28125 C107.77855716 97.61721735 112.36994837 102.31858018 117 107.0390625 C120.88544332 110.97003836 124.87527415 114.67858086 129.0625 118.28515625 C132.18503823 121.0488544 135.08421034 124.02151406 138 127 C142.20676734 131.25575444 146.44049908 135.36401956 151.01171875 139.23046875 C154.12361218 141.99999276 157.01215181 144.99192274 159.93652344 147.95605469 C162.520546 150.56153626 165.14226734 153.06068054 167.9375 155.4375 C172.04426535 158.93710497 175.78724806 162.75982009 179.57568359 166.59521484 C182.90566329 169.95044557 186.33922489 173.09717875 189.94140625 176.16015625 C193.07076041 178.95697942 195.98541629 181.96475348 198.93164062 184.95117188 C202.14397583 188.19023941 205.47221837 191.20695848 208.94140625 194.1640625 C213.14632503 197.91417982 217.0539476 201.98117205 221 206 C223.93063519 204.68276246 225.94715944 203.27851354 228.1640625 200.9609375 C229.01097656 200.09082031 229.01097656 200.09082031 229.875 199.203125 C230.4525 198.59984375 231.03 197.9965625 231.625 197.375 C232.77917517 196.16998011 233.93781463 194.96921513 235.1015625 193.7734375 C235.61025879 193.24153809 236.11895508 192.70963867 236.64306641 192.16162109 C238 191 238 191 240 191 C240.33 190.01 240.66 189.02 241 188 C242.53125 186.4921875 242.53125 186.4921875 244.5 184.875 C247.65106235 182.20785079 250.60589411 179.44435078 253.5 176.5 C256.20803565 173.75499458 258.94169249 171.1272909 261.875 168.625 C265.24557833 165.73785123 268.38502493 162.65751484 271.5 159.5 C274.49177114 156.46770369 277.49152038 153.49845672 280.75 150.75 C284.89256464 147.22368465 288.67492479 143.36239301 292.5 139.5 C296.88756726 135.0696272 301.27786703 130.75692955 306.046875 126.734375 C309.14936927 123.97936009 312.02409896 120.99596427 314.93676758 118.04370117 C317.52070741 115.4382993 320.14235521 112.93924473 322.9375 110.5625 C327.04268939 107.06423799 330.78437205 103.24316838 334.57128906 99.40917969 C337.94568641 96.00913777 341.42488275 92.81236685 345.07421875 89.70703125 C348.11524413 87.01143674 350.92067377 84.08728948 353.7734375 81.1953125 C356.44633174 78.55993257 359.25368303 76.12233511 362.1015625 73.6796875 C364.58959026 71.47834607 366.89194077 69.11911485 369.21875 66.75 C371.71896185 64.29365151 374.37680516 62.03690632 377.03125 59.75 C378.93023071 58.06201714 380.72005988 56.31230266 382.5 54.5 C384.75797943 52.20673964 387.05996504 50.03571972 389.5 47.9375 C393.49075628 44.49479729 397.34126367 40.91455396 401.1875 37.3125 C401.83420654 36.70696289 402.48091309 36.10142578 403.1472168 35.47753906 C404.45981555 34.24839095 405.77239695 33.0192243 407.08496094 31.79003906 C414.51377236 24.84612711 421.99165772 17.9555931 429.57421875 11.1796875 C431.31699003 9.61371911 433.04735013 8.03389706 434.76953125 6.4453125 C435.67058594 5.61773437 436.57164062 4.79015625 437.5 3.9375 C438.3146875 3.18339844 439.129375 2.42929687 439.96875 1.65234375 C442 0 442 0 444 0 C444.18553376 11.6133719 444.32759489 23.22639008 444.41449738 34.84094334 C444.4562115 40.23442064 444.51277057 45.62688251 444.60351562 51.01977539 C444.69057671 56.22644429 444.73830254 61.43213797 444.75901794 66.63947868 C444.77377583 68.62389414 444.80259636 70.60825744 444.84584045 72.59225655 C445.17001559 88.08425484 445.17001559 88.08425484 442.46020508 92.52120972 C440.41371716 94.30679118 438.32869902 95.60977044 436 97 C434.60114585 98.29056991 433.23968547 99.62259923 431.9140625 100.98828125 C430.87258057 102.03471802 430.87258057 102.03471802 429.81005859 103.10229492 C428.72845459 104.19634644 428.72845459 104.19634644 427.625 105.3125 C426.85623535 106.08505127 426.0874707 106.85760254 425.29541016 107.65356445 C422.86114235 110.09994182 420.43015894 112.5495414 418 115 C414.79463822 118.23213688 411.58585927 121.46082535 408.375 124.6875 C407.293396 125.78155151 407.293396 125.78155151 406.18994141 126.89770508 C402.24631789 130.86009032 398.19864295 134.61041732 393.96508789 138.25976562 C390.59241893 141.2465198 387.4455555 144.45188261 384.28125 147.65625 C383.57907349 148.36221313 382.87689697 149.06817627 382.15344238 149.79553223 C379.93315397 152.02791358 377.71616045 154.26352111 375.5 156.5 C372.57590521 159.45090378 369.64836943 162.39833203 366.71875 165.34375 C366.063302 166.00749634 365.407854 166.67124268 364.73254395 167.35510254 C360.92430748 171.18317231 356.99463259 174.78958627 352.90759277 178.31726074 C350.01167928 180.87182448 347.30177372 183.59285739 344.59375 186.34375 C344.02474976 186.91653687 343.45574951 187.48932373 342.86950684 188.07946777 C341.07717018 189.88385251 339.28815684 191.6914736 337.5 193.5 C324.33245892 206.81753748 324.33245892 206.81753748 320.09375 210.40625 C313.32910841 216.15655251 307.24102121 222.69557219 301 229 C298.35717585 231.66967432 295.71088176 234.33584008 293.0625 237 C292.47267334 237.598125 291.88284668 238.19625 291.27514648 238.8125 C288.3027391 241.80200696 285.27575682 244.66512127 282.08203125 247.41796875 C277.72380205 251.18563352 273.6737107 255.2171952 269.625 259.3125 C268.47185303 260.4713269 268.47185303 260.4713269 267.29541016 261.65356445 C264.86114235 264.09994182 262.43015894 266.5495414 260 269 C256.79463822 272.23213688 253.58585927 275.46082535 250.375 278.6875 C249.293396 279.78155151 249.293396 279.78155151 248.18994141 280.89770508 C244.19466107 284.9119929 240.10898725 288.741258 235.7958374 292.41308594 C232.15573009 295.62971205 228.87329053 299.23985125 225.58203125 302.80859375 C223.953125 304.5 223.953125 304.5 221 307 C217.97278015 306.69229201 217.22300874 306.27079633 215.25 303.875 C214.5075 302.92625 213.765 301.9775 213 301 C211.90929761 300.02301513 210.79696845 299.0699869 209.671875 298.1328125 C202.83674325 292.23058805 196.61608053 285.67087855 190.27246094 279.25195312 C188.57962012 277.54082693 186.88362463 275.8328703 185.1875 274.125 C184.68516846 273.61437012 184.18283691 273.10374023 183.6652832 272.57763672 C180.93314025 269.82722899 178.13083019 267.21992337 175.19140625 264.69140625 C170.48735239 260.61705528 166.12613812 256.23355066 161.75 251.8125 C160.46367676 250.52049683 160.46367676 250.52049683 159.15136719 249.20239258 C155.51505061 245.54986017 151.88475629 241.89136365 148.25390625 238.23339844 C145.58802403 235.54934844 142.9190819 232.86836759 140.25 230.1875 C139.44143555 229.37063721 138.63287109 228.55377441 137.79980469 227.7121582 C134.33638957 224.23396988 130.86577428 220.82909617 127.13623047 217.63623047 C122.22765329 213.41194268 117.69829527 208.81055811 113.14068985 204.21585464 C111.53730272 202.5995365 109.93066542 200.98651037 108.32321167 199.37423706 C104.92095842 195.96065494 101.52270412 192.54310931 98.125 189.125 C94.16421304 185.14058646 90.20179025 181.15782762 86.23516464 177.17922592 C84.65212564 175.58970472 83.07212417 173.99720579 81.49221802 172.40457153 C80.52767391 171.43639726 79.56299046 170.46836178 78.59814453 169.50048828 C77.75623566 168.65334259 76.91432678 167.8061969 76.04690552 166.93338013 C74.14880042 164.9539619 74.14880042 164.9539619 72 164 C72 264.32 72 364.64 72 468 C48.24 468 24.48 468 0 468 C0 313.56 0 159.12 0 0 Z " fill="#FDFCFC" transform="translate(363,408)" data-index="1" style="opacity: 1; visibility: visible;"/>
<path d="M0 0 C0.495 0.99 0.495 0.99 1 2 C0.32060981 3.94281756 -0.44594019 5.85537631 -1.25 7.75 C-10.58090057 31.74003126 -9.84574629 59.45431516 0.125 83.1875 C10.86544088 106.87252225 28.75644107 123.74987764 52.875 133.5 C64.48651258 137.80929932 75.91514671 140.11051088 88.27734375 140.23828125 C89.04695938 140.246353 89.81657501 140.25442474 90.60951233 140.26274109 C92.23224708 140.27648535 93.85500956 140.28725005 95.4777832 140.29516602 C97.1015703 140.30660908 98.72532212 140.32693716 100.34887695 140.35668945 C126.78230691 140.83896282 153.4781989 132.357657 173 114 C182.72384588 104.49385217 188.93543537 94.12912926 195 82 C155.4 82 115.8 82 75 82 C76.66049047 77.84877383 77.64371779 75.93161789 80.375 72.6875 C83.95105504 68.33039323 87.38003765 63.89155686 90.75 59.375 C91.2567627 58.69630859 91.76352539 58.01761719 92.28564453 57.31835938 C93.3301255 55.91873523 94.37422957 54.51882975 95.41796875 53.11865234 C96.99300826 51.00936333 98.5735557 48.90433121 100.15625 46.80078125 C100.67477539 46.11129395 101.19330078 45.42180664 101.72753906 44.71142578 C102.69774112 43.42166069 103.66839594 42.13223596 104.63964844 40.84326172 C105.0937207 40.23885254 105.54779297 39.63444336 106.015625 39.01171875 C106.6949773 38.13765365 106.6949773 38.13765365 107.38805389 37.24593067 C109.08188362 34.97511461 109.08188362 34.97511461 110.53833771 32.24588299 C113.13277516 27.92832112 115.13084088 24.61046239 120.0587616 23.00101662 C123.83461454 22.64620436 127.52783008 22.63649401 131.31054688 22.7512207 C132.7501298 22.75432772 134.18973014 22.75257361 135.62930298 22.74635315 C139.51868121 22.74320929 143.40429307 22.80765505 147.292799 22.88466668 C151.3631747 22.95365066 155.43364653 22.95990948 159.5045166 22.97294617 C167.20451036 23.00707321 174.90277662 23.09724949 182.6020112 23.20779055 C191.37082977 23.33094238 200.13973291 23.39127183 208.90920162 23.44644034 C226.94044549 23.56127609 244.97008364 23.75462948 263 24 C263.04072788 29.01186708 263.06992097 34.02363395 263.08926392 39.03562927 C263.09734329 40.73411237 263.10836065 42.43258451 263.12258911 44.13102722 C263.34987876 71.99766363 258.63848879 98.46702116 245 123 C244.4225 124.06734375 243.845 125.1346875 243.25 126.234375 C223.3989038 161.70901913 189.6151156 185.46906716 151.1875 197.1875 C142.91908654 199.43996224 134.48656495 200.85592274 126 202 C125.30003906 202.09788818 124.60007812 202.19577637 123.87890625 202.29663086 C115.94568447 203.25329411 107.97760219 203.18608403 99.99902344 203.18530273 C97.5330225 203.18747096 95.06748363 203.20562937 92.6015625 203.22460938 C75.88001952 203.28486023 60.09916815 201.5439769 44 197 C42.63294922 196.62875 42.63294922 196.62875 41.23828125 196.25 C38.80142405 195.55936092 36.402047 194.80323228 34 194 C33.06671875 193.68804688 32.1334375 193.37609375 31.171875 193.0546875 C10.06468825 185.47094955 -7.96185267 173.49188891 -24 158 C-24.92554688 157.13761719 -25.85109375 156.27523437 -26.8046875 155.38671875 C-47.68516425 135.42309013 -59.78228213 109.58581196 -66.1875 81.75 C-66.36692139 80.98051025 -66.54634277 80.21102051 -66.73120117 79.41821289 C-66.89595947 78.67692139 -67.06071777 77.93562988 -67.23046875 77.171875 C-67.37895264 76.5128418 -67.52743652 75.85380859 -67.68041992 75.17480469 C-67.83861206 74.09827637 -67.83861206 74.09827637 -68 73 C-68.15662109 72.07678955 -68.31324219 71.1535791 -68.47460938 70.20239258 C-67.7429641 65.26566876 -64.69174595 62.94668927 -61.17578125 59.58984375 C-60.47736618 58.89991837 -59.77895111 58.20999298 -59.05937195 57.49916077 C-56.82411515 55.29744707 -54.56895381 53.11746385 -52.3125 50.9375 C-50.81178216 49.4668904 -49.31241678 47.9948993 -47.81445312 46.52148438 C-45.05297412 43.80895109 -42.2839427 41.10467959 -39.50512695 38.40991211 C-37.38136051 36.34997937 -35.2769585 34.27683309 -33.18481445 32.18432617 C-30.82232479 29.8223645 -28.36416781 27.60291404 -25.875 25.375 C-16.91394275 17.26926304 -8.49775363 8.58454716 0 0 Z " fill="#08F5DA" transform="translate(671,681)" data-index="2" style="opacity: 1;"/>
<path d="M0 0 C30.70835211 -3.41203912 66.88931548 15.95348935 90.08349609 34.43554688 C105.30162194 46.85819024 118.94767126 61.88226033 127 80 C127 80.66 127 81.32 127 82 C116.37768573 82.09264562 105.75546745 82.1637374 95.13283157 82.20724869 C90.20038847 82.2281311 85.26822161 82.2564607 80.3359375 82.30175781 C75.57674186 82.34519221 70.81781207 82.36913218 66.05843353 82.37950897 C64.24190841 82.38690467 62.42539797 82.40134669 60.6089859 82.42292023 C58.06615156 82.45192266 55.52441821 82.4559574 52.98144531 82.45410156 C52.22906586 82.46848267 51.4766864 82.48286377 50.70150757 82.49768066 C47.19796216 82.46997984 45.38025035 82.30959411 42.62054443 80.06268311 C42.08576477 79.38199768 41.55098511 78.70131226 41 78 C18.7760635 61.04799936 -14.21414199 58.66758961 -40.9375 61.6875 C-49.92051501 63.09423613 -59.23605409 65.54280685 -67.33984375 69.72265625 C-68.65662109 70.35494141 -68.65662109 70.35494141 -70 71 C-70.66 70.67 -71.32 70.34 -72 70 C-71.00363813 68.97561545 -70.00260713 67.95577287 -69 66.9375 C-68.443125 66.36902344 -67.88625 65.80054688 -67.3125 65.21484375 C-65.42840533 63.41031388 -63.51489708 61.72560002 -61.53125 60.03515625 C-55.55319382 54.83826042 -50.06298175 49.13192398 -44.5 43.5 C-32.17572549 31.02299031 -32.17572549 31.02299031 -25.88623047 25.66357422 C-22.18400973 22.39837462 -18.77043351 18.83223751 -15.3125 15.3125 C-11.02384381 10.94840571 -6.80092494 6.80333015 -2 3 C-1.34 2.01 -0.68 1.02 0 0 Z " fill="#08F4D9" transform="translate(790,565)" data-index="3" style="opacity: 1;"/>
<path d="M0 0 C1.98 0.99 1.98 0.99 4 2 C3.01 2.33 2.02 2.66 1 3 C1 156.12 1 309.24 1 467 C24.1 467 47.2 467 71 467 C71 366.68 71 266.36 71 163 C71.66 163.33 72.32 163.66 73 164 C72.67 264.32 72.34 364.64 72 468 C48.24 468 24.48 468 0 468 C0 313.56 0 159.12 0 0 Z " fill="#C0C0C0" transform="translate(363,408)" data-index="4" style="opacity: 1;"/>



<path d="M0 0 C0.33 0.99 0.66 1.98 1 3 C-1.25 6.1875 -1.25 6.1875 -4 9 C-4.99 9 -5.98 9 -7 9 C-7.33 9.66 -7.66 10.32 -8 11 C-8.99 10.67 -9.98 10.34 -11 10 C-9.73232923 8.70522938 -8.46073776 7.41429661 -7.1875 6.125 C-6.47980469 5.40570313 -5.77210938 4.68640625 -5.04296875 3.9453125 C-3 2 -3 2 0 0 Z " fill="#E4E3E5" transform="translate(705,501)" data-index="8"/>

<path d="M0 0 C0.99 0.33 1.98 0.66 3 1 C-0.3810038 5.13621084 -3.66590534 8.81316569 -8 12 C-8 10.68 -8 9.36 -8 8 C-7.01 7.67 -6.02 7.34 -5 7 C-4.67 6.34 -4.34 5.68 -4 5 C-3 3 -3 3 0 2 C0 1.34 0 0.68 0 0 Z " fill="#F5F5F5" transform="translate(758,540)" data-index="10" style="visibility: visible; opacity: 1;"/>


<path d="M0 0 C0.33 0.66 0.66 1.32 1 2 C-1.19512195 8.58536585 -1.19512195 8.58536585 -4.0625 10.0625 C-6 10 -6 10 -8 8 C-5.36 5.36 -2.72 2.72 0 0 Z " fill="#04DECF" transform="translate(671,681)" data-index="13"/>
<path d="M0 0 C1.50560497 2.85410334 2.63216796 5.68124642 3.625 8.75 C3.88539063 9.54921875 4.14578125 10.3484375 4.4140625 11.171875 C4.60742188 11.77515625 4.80078125 12.3784375 5 13 C3.68 12.67 2.36 12.34 1 12 C0.01751476 7.9472484 -0.08159574 4.16138263 0 0 Z " fill="#02E0CB" transform="translate(666,752)" data-index="14"/>




<path d="M0 0 C0.33 0.99 0.66 1.98 1 3 C-0.65 4.65 -2.3 6.3 -4 8 C-4.99 7.67 -5.98 7.34 -7 7 C-4.69 4.69 -2.38 2.38 0 0 Z " fill="#09E2CF" transform="translate(623,728)" data-index="19"/>

<path d="M0 0 C4.455 2.97 4.455 2.97 9 6 C8.34 6.66 7.68 7.32 7 8 C5.82512964 7.24172908 4.66027408 6.46792245 3.5 5.6875 C2.52546875 5.04361328 2.52546875 5.04361328 1.53125 4.38671875 C1.0259375 3.92910156 0.520625 3.47148438 0 3 C0 2.01 0 1.02 0 0 Z " fill="#06E7CE" transform="translate(694,797)" data-index="21" style="opacity: 1;"/>




<path d="M0 0 C0.99 0.33 1.98 0.66 3 1 C1.35 2.65 -0.3 4.3 -2 6 C-2.99 5.67 -3.98 5.34 -5 5 C-3.35 3.35 -1.7 1.7 0 0 Z " fill="#07E8D1" transform="translate(660,692)" data-index="26"/>
<path d="M0 0 C2.52588702 2.36292656 3.88820837 3.66462511 5 7 C4.01 7 3.02 7 2 7 C0 4 0 4 0 0 Z " fill="#01DAC3" transform="translate(675,774)" data-index="27"/>
<path d="M0 0 C1.9375 0.3125 1.9375 0.3125 4 1 C4.33 1.99 4.66 2.98 5 4 C2.69 4 0.38 4 -2 4 C-1.34 2.68 -0.68 1.36 0 0 Z " fill="#15EBD2" transform="translate(749,757)" data-index="28"/>
<path d="M0 0 C1.98 1.65 3.96 3.3 6 5 C5.34 5.66 4.68 6.32 4 7 C2.35 5.02 0.7 3.04 -1 1 C-0.67 0.67 -0.34 0.34 0 0 Z " fill="#F0EFF0" transform="translate(549,680)" data-index="29" style="opacity: 1;"/>
<path d="M0 0 C0 3 0 3 -2.5 5.6875 C-3.325 6.450625 -4.15 7.21375 -5 8 C-5.66 7.67 -6.32 7.34 -7 7 C-4.69 4.69 -2.38 2.38 0 0 Z " fill="#05B9A8" transform="translate(725,628)" data-index="30"/>
</svg>